<?xml version="1.0" encoding="UTF-8" standalone="no"?>
<svg
   xmlnsDc="http://purl.org/dc/elements/1.1/"
   xmlnsCc="http://creativecommons.org/ns#"
   xmlnsRdf="http://www.w3.org/1999/02/22-rdf-syntax-ns#"
   xmlnsSvg="http://www.w3.org/2000/svg"
   xmlns="http://www.w3.org/2000/svg"
   xmlnsSodipodi="http://sodipodi.sourceforge.net/DTD/sodipodi-0.dtd"
   xmlnsInkscape="http://www.inkscape.org/namespaces/inkscape"
   version="1.1"
   id="svg2"
   xmlSpace="preserve"
   width="1784.3199"
   height="1142.4399"
   viewBox="0 0 1784.3199 1142.4399"
   sodipodiDocname="free-fox-silhouette-vector.eps"><metadata
     id="metadata8"><rdfRDF><ccWork
         rdfAbout=""><dcFormat>image/svg+xml</dcFormat><dcType
           rdfResource="http://purl.org/dc/dcmitype/StillImage" /></ccWork></rdfRDF></metadata><defs
     id="defs6" /><sodipodiNamedview
     pagecolor="#ffffff"
     bordercolor="#666666"
     borderopacity="1"
     objecttolerance="10"
     gridtolerance="10"
     guidetolerance="10"
     inkscapePageopacity="0"
     inkscapePageshadow="2"
     inkscapeWindow-width="640"
     inkscapeWindow-height="480"
     id="namedview4" /><g
     id="g10"
     inkscapeGroupmode="layer"
     inkscapeLabel="ink_ext_XXXXXX"
     transform="matrix(1.3333333,0,0,-1.3333333,0,1142.44)"><g
       id="g12"
       transform="scale(0.1)"><path
         d="m 1992.23,35.7305 c 16.48,-11.8516 26.55,4 0,0 11.89,-8.5508 41.05,-19.3711 34.51,-35.7305 -148.84,38.5391 -299.56,15.4805 -466.64,3.25 -55.86,-4.101563 -92.51,22.3906 -136.54,10.332 -34.04,-9.332 -63.85,31.1094 -97.67,8.3399 -21.96,-14.78127 -226.54,108.8791 -252.02,127.1681 6.48,-17.41 12.24,-35.051 17.28,-52.9298 C 1057.78,214.621 687,322.129 594.934,386.379 549.449,418.121 487.262,458.141 446.949,496.941 354.41,586.07 287.938,697.949 222.406,803.738 c -12.238,19.762 -19.144,-9.328 -32.84,-2.039 -14.937,7.961 -75.765,97.481 -83.543,116.813 -26.8121,66.629 12.84,133.178 -32.4253,198.548 -53.6797,77.51 -64.24614,167.72 -46.7891,263.72 14.7227,80.99 11.3516,169.58 -11.1797,241.67 -83.4336,267.35 184.6761,779.82 390.2151,934.13 33.312,25.01 21.711,57.14 48.043,83.43 26.301,26.27 53.367,46.37 75.523,77.17 51.16,71.11 94.567,167.29 192.387,180.19 53.781,7.08 136.637,73.58 184.305,101.71 36.027,21.26 73.433,36.73 115.588,41.13 33.07,3.46 70.93,-24.24 102.11,-3.88 53.85,35.17 110.77,121.89 160.48,168.67 59.13,55.67 57.74,140.29 113.2,195.1 108.33,106.61 128.87,94.31 148.23,236.49 5.54,40.7 17.47,82.51 4.93,123.43 25.44,22.55 40.58,145.4 40.97,180.56 0.77,67.24 76.7,186.06 121.11,234.33 141.94,154.21 281.96,-121.56 418.5,-133.61 154.19,-13.6 316.63,-123.95 446.38,7.09 60.05,60.67 309.39,305.25 406.97,196.31 30.31,-33.83 26.65,-173.83 16.38,-216.21 -23.98,-98.84 -73.59,-187.26 -91.05,-289.56 -10.51,-61.51 -5.05,-124.46 16.64,-183.01 18.99,-51.31 72.79,-103.12 51.94,-161.65 -14.86,-41.77 -13.87,-82.87 -23.33,-125.3 -23.51,-104.74 -86.81,-277.32 -125.26,-379.14 -35.91,-95.1 -131.68,-117.43 -157.79,-216.83 -11.94,-45.47 -20.27,-92.91 -47.3,-132.61 -30.89,-45.34 -75.22,-74.05 -96.32,-127.19 -55.47,-139.64 -134.81,-233.7 -160.6,-383.67 -13.31,-77.4 4.32,-44.28 -48.37,-70.26 -43.8,-21.58 -59.03,-84.94 -75.5,-125.85 -0.92,-2.27 -34.11,-118.51 -31.5,-117.4 -8.83,4.5 -17.87,5.9 -27.16,4.21 -0.45,-42.11 -3.57,-91.44 10.76,-132.01 -11.43,0.97 -20.37,6.15 -26.79,15.51 -16.96,-12.61 2.08,-41.89 -2.97,-58.29 -7.58,-24.59 -62.03,-53.2 -78.63,-81.68 -60.95,-104.54 -5.08,-156.46 0.42,-265.22 2.11,-41.92 207.35,-28.17 241.35,-24.56 14.28,1.51 101.16,28.68 110,10.96 14.26,-28.61 46.1,-36.1 79.65,-38.61 292.31,-21.82 616.95,-199.939 675.36,-502.779 9.14,-5.332 18.91,-8.942 29.28,-10.922 -42.33,-135.18 -35.2,-202.418 -130.92,-316.039 -71.3,-84.629 -220.86,-178.91 -333.03,-195.559 3.99,-5.922 6.66,-12.351 8.03,-19.289 2.1,-10.6717 -353.26,-35.9607 -370.78,-38.4725 -58.48,-8.3476 -127.8,-2.9101 -182.82,-23.2812 -86.32,-31.94924 -139.17,8.2422 -222.03,-4.2578"
         style="fill:#231f20;fill-opacity:1;fill-rule:evenodd;stroke:none"
         id="path14" /><path
         d="m 1572.44,8568.26 c 32.1,-26.62 -10.77,0 0,0 57.83,-47.95 65.62,-128.71 120.62,-178.75 53.78,-48.94 126.34,-35.33 186.1,-71.51 181.31,-109.79 354.53,86.09 535.96,1.99 172.82,-80.13 -130.33,-315.95 -150.17,-390.2 -10.27,-38.49 -47.77,-62.2 -63.14,-99.57 -14.78,-35.95 -17.26,-76.62 -34.01,-111.54 -34.47,-71.84 -82.38,-118.52 -46.07,-207.88 27.53,-67.75 105.66,-362.96 171.21,-398.37 47.21,-25.48 50.52,-152.99 38.41,-195.76 -31.05,-109.53 23.09,-196.4 47.08,-305.21 19.23,-87.26 29.76,-177.8 44.87,-265.24 8.78,-50.83 38.5,-185.7 2.63,-222.44 -29.7,-30.42 -30.46,-139.19 -45.38,-185.75 -8.72,-27.25 4.16,-85.44 -19.66,-104.04 -34.54,-26.95 -43.74,-78.1 -26.78,-117.45 57.57,-131.81 544.65,-92.55 658.4,-115.03 123.47,-24.4 383.52,-91.12 465.81,-203.63 41.47,-56.72 111.85,-89.93 154.57,-155.28 50.11,-76.66 126.47,-145.38 165.58,-227.23 35.59,-74.46 21.98,-161.09 -55.84,-202.98 -74.24,-39.98 -174.82,1.16 -252.62,7.41 -89.97,7.24 -185.24,-10.41 -273.34,10.4 -98.3,23.22 -189.69,67.5 -288.58,88.78 -103.02,22.16 -208.17,32.01 -311.44,52.82 -69.52,13.99 -199.36,74.93 -162.65,-44.8 23.92,-78.05 101.75,-93.12 134.03,-162.82 41.84,-90.31 -8.51,-132.77 -94.49,-148.71 -73.83,-13.69 -177.55,-10.42 -246.72,23.7 -68.98,34.03 -12.15,149.9 -42.82,203.05 -28.06,48.62 -182.54,21.05 -234.18,39.34 -87.01,30.8 -131.08,114.93 -236.3,73.29 -165.91,-65.65 97.91,-300.33 2.16,-369.12 -74.84,-53.77 -382.12,-103.21 -387.86,50.98 -2.47,66.42 82.19,95.08 82.36,156.48 0.09,25.32 19.98,150.89 -20.77,154.21 -30.52,2.5 -30.55,-48.69 -37.6,-65.94 -15.69,-38.45 -54.11,-47.03 -91.4,-53.71 -63.67,-11.41 -208.04,-13.27 -221.83,75.8 -2.6,16.82 39.98,166.03 -9.44,153.12 -49.589,-12.93 -130.687,58.58 -145.085,102.53 -21.317,65.06 -13.852,174.04 -2.457,240.12 15.136,87.75 -10.535,177.74 1.574,266.57 12.043,88.36 31.672,215.11 65.23,296.4 28.735,69.62 62.858,85.94 104.648,153.8 85.54,138.91 88.07,303.35 155.9,448.88 33.03,70.86 75.38,164.75 30.83,241.15 -37.95,65.09 -53.51,120.44 -28.65,197.08 20.3,62.58 70.3,141.35 73.93,207.78 0.02,0.28 0.03,0.55 0.04,0.83 2.39,58.17 -66.58,94.53 -75.92,152.3 -22.41,138.7 48.42,279.11 -22.93,416.38 -79.14,152.26 -270.332,266.95 -270.27,453.32 0.012,46.92 6.965,192.17 79.45,191.03 66.35,-1.04 168.91,-56.48 232.14,-80.04 79.45,-29.6 128.76,-4.43 203.4,30.54 73.71,34.54 53.85,139.85 109.16,192.92 10.78,0 21.54,0 32.31,0"
         style="fill:#231f20;fill-opacity:1;fill-rule:evenodd;stroke:none"
         id="path16" /><path
         d="m 7371.87,251.762 c -186.24,21.019 -413.39,-47.59 -592.27,3.539 -208.15,59.359 -392.04,-23.852 -597.76,-29.211 -208.89,-5.438 -421.19,4.711 -629.98,13.019 -215.64,8.582 -449.4,31 -650.22,115.02 -83.05,34.75 -161.38,80 -235.28,131.242 -41.79,28.981 -156.03,103.559 -161.1,159.527 -7.78,85.5 -34.15,172.622 -54.86,255.161 -27.22,108.561 65.01,167.071 121.27,244.401 95.84,131.72 -35.2,218.45 -80.62,343.33 -14.87,40.89 -18.5,181.58 -11.86,226.9 10.18,69.45 45.24,186.16 76.95,248.17 73.89,144.54 76.88,300.12 145.89,446.8 38.5,81.84 51.5,162.29 80.86,248.16 35.03,102.48 98.14,180.09 155.48,269.92 50.81,79.58 88.98,166.31 106.06,259.48 17.02,92.79 17.49,191.64 66.62,275.74 96.54,165.29 289.48,16.29 372.67,-78.67 60.14,-68.66 170.34,9.79 241.97,21.59 100.26,16.54 202.83,7.34 301.07,-16.71 94.51,-23.13 163.66,19.54 237.14,74.59 63.25,47.38 181.86,179.89 266.31,172.59 145.81,-12.6 -9.9,-403.37 -27.46,-483.4 -33.7,-153.52 63.47,-327.61 223.26,-367.96 136.35,-34.42 264.63,-77.4 391.66,-129.57 79.91,-32.8 168.55,-34.93 248.16,-68.65 70.94,-30.05 143.28,-78.2 213.02,-113.86 128.92,-65.9 283.82,-188.37 360.39,-314.53 39.66,-65.37 66.78,-144.66 101.91,-213.54 36.48,-71.55 35.55,-150.33 70.91,-223.62 35.38,-73.33 43.65,-165.61 87.6,-232.03 67.87,-102.54 -0.42,-89.43 -14.5,-193.52 -25.37,-187.71 20.23,-389.291 -36.62,-573.549 -21.86,-70.891 -55.76,-139.66 -110.04,-191.43 -46.48,-44.339 -106.34,-107.8 -158.12,-143.781 -150.9,-104.89 -336.64,-104.789 -508.51,-135.148 -187.64,21.168 79.4,14.019 0,0"
         style="fill:#231f20;fill-opacity:1;fill-rule:evenodd;stroke:none"
         id="path18" /><path
         d="m 11557.1,1089.47 c 116.5,-109.958 -14.3,-225.349 -88.9,-327.982 -41.6,-57.187 -89.8,-89 -140.2,-136.406 -60.2,-56.711 -44.4,-113.781 46.2,-87.363 58.8,17.14 84.9,76.472 142.9,94.133 29.7,9.039 61.4,-9.063 88.3,0.238 27.3,9.449 48.5,75.808 60.6,98.34 33.6,63.16 80.1,140.492 83,213.992 3.3,84.228 -123,136.868 -191.9,145.048 69.6,-65.76 61.9,-7.36 0,0 z m -1900.44,499.05 c -28.9,61.11 -77.81,106.08 -106.72,165.6 -17.05,35.11 -35.36,69.65 -68.31,92.71 -21.01,14.71 -41.07,15.82 -61.38,2.62 -9,26.26 -99.58,231.66 -109.89,232.63 -86.71,8.19 -17.96,238.33 -4.02,280.92 43.77,133.74 57.8,161.9 35.01,306.56 -22.27,141.33 -87.89,254.26 -88.51,400.36 -0.84,199.08 116.42,115.35 228.93,41.1 57.34,-37.84 107.34,-85.29 155.31,-134.15 46.88,-47.75 27.26,10.02 48.17,21.36 6.14,6.65 301.4,-32.32 323.75,-35.89 40.3,-6.46 68.5,-32.36 110.7,-32.08 76.2,0.5 365.5,260.48 426.7,193.39 15.8,-17.19 -65.2,-90.33 -77.9,-101.12 -54.4,-46.02 -113.7,-58.94 -117.7,-143.05 -6.6,-140.03 146.3,-231.26 270.2,-186.69 -4.1,-27.11 -31.3,-22.01 -39.9,-44.11 24.6,-25.17 61.3,-28.26 94.1,-25.32 61.3,5.48 115.1,-25.53 173.2,-37.97 77.3,-16.54 168.9,-18.14 246.7,-12.98 108.6,7.17 214.1,-23.44 317.3,-52.96 82,-23.46 150.9,-111.19 220.5,-164.08 95.8,-72.72 127.8,-136.02 189.1,-234.46 55.2,-88.76 137,-157.53 193.2,-246.1 77,-121.23 127.4,-395.07 260.4,-452.47 -12.2,-7.05 -22.4,-6.52 -36.2,-12.9 54.1,-237.88 310.7,-473.081 509,-579.67 -21.5,4.472 -44.6,7.41 -66.4,11.14 174.2,-29.73 298.7,-204.09 490.4,-159.711 -9.7,-12.199 -20.7,-23.73 -30.5,-35.07 47.2,-7.399 99.4,-28.699 149.1,-27.578 -12.8,-7.551 -26.3,-13.821 -40.3,-18.821 41.2,-1.289 85.8,-25.14 124.3,-30.371 -15.1,-4.121 -47.1,-24.429 -70.1,-31.019 39.6,-26.442 68.8,-44.442 77.5,-90.32 -89.7,-65.551 -219.3,-34.801 -323.8,-25.352 -118.6,10.73 -237.4,19.434 -356,30.152 -42.3,3.821 -260.6,84.282 -233.4,26.93 -52.2,7.621 -88.2,77.551 -137,101.789 -62.1,30.891 -119.8,65.152 -174.5,108.211 -53.9,42.398 -101.3,90.59 -144.9,143.289 -78.6,94.82 -72.1,38.063 -106.3,-46.391 -27.6,-68.269 -69.7,-129.507 -97.7,-197.636 -22.8,-55.774 0.6,-134 -68.3,-154.071 -75.6,-22.05 -154.7,-18.839 -232.6,-15.07 -77.1,3.731 -173.2,69.859 -244.8,44.391 -111.2,-39.571 -319.7,-62.422 -432.1,-15.922 -142.2,58.82 95.1,228.402 181.1,209.601 80.1,-17.531 85.6,-1.269 152.9,52.618 58.6,46.882 150.2,111.562 168.9,189.332 27.4,113.409 -270.3,213.689 -344.5,255.899 -22.5,12.87 -96.9,88.95 -124,76.21 -28,-13.13 -21.7,-143.65 -25.1,-171.18 -9.9,-78.398 -41.9,-157.332 -40.1,-236.621 1.7,-75.308 11.6,-142 -28.6,-210.469 -25.7,-43.808 -97.9,-100.218 -39.6,-148.691 87.9,-73.098 -134.9,-99.82 -162.4,-99.98 -31.5,-0.18 -474.2,-11.278 -389.7,105.211 30,41.339 120.3,76.351 168.8,84.289 35.6,5.812 84.7,-22.36 115.9,-9.977 26.6,10.566 52.7,82.188 64.9,106.168 32.3,63.801 35.4,135.781 18.8,204.488 -23.2,95.684 4.7,201.392 1.3,299.012 -2.9,80.93 -12.1,410.27 -153,340.78 -13.9,5.33 -26.4,12.96 -37.6,22.9 -35.5,1.99 -37.6,-23.55 -58.7,-30.97 -28.9,-10.19 -104.4,53.38 -89.6,-25.54 -137,83.23 -129.3,-98.44 -154.5,-204.83 -44.5,-187.81 -67.96,-375.192 -102.65,-563.91 -6.89,-37.578 -48.64,-80.27 -67.15,-117.551 -25.03,-50.399 -36.44,-146.309 -89.45,-164.84 -95.02,-33.277 -211.87,-9.269 -310.31,-3.73 -69.64,3.921 -183.06,-9.649 -245.2,30.793 -126.07,82.027 185.71,145.078 221.69,151.046 31.2,5.18 152.86,-19.718 168.96,6.122 40.19,64.511 101.17,117.308 123.48,192.082 19.55,65.519 9.25,144.757 16.68,212.777 11.91,108.971 15.99,218.581 21.12,328.031 4.49,95.73 17.01,175.35 -48.56,253.21 -13.75,16.33 -27.41,30.95 -45.91,41.57 -13.27,-13.2 -30.23,-17 -42.24,-33.67"
         style="fill:#231f20;fill-opacity:1;fill-rule:evenodd;stroke:none"
         id="path20" /><path
         d="m 6684.93,5530.47 c 38.05,-91.38 37.87,-115.12 -30.37,-186.72 -59.7,-62.63 -111.49,-132.57 -171.56,-194.72 -24.28,-25.11 -57.12,-31.92 -81.71,-54.74 -24.18,-22.44 -23.54,-55.73 -56.06,-71.66 -72.41,-35.5 -207.79,-13.32 -276.51,19.91 -62.1,30.02 -32.53,107.62 24.31,127.07 74.18,25.38 138.32,-7.19 210.48,45.49 141.84,103.55 202.94,257.25 89.55,410.72 -114.15,154.5 -267.46,259.17 -367.11,430.55 -31.47,54.13 -61.09,146.92 -130.97,163.69 -93.21,22.37 -213.2,-16.93 -313.34,-4.3 -68.38,8.61 -442.97,104.01 -479.02,29.98 -30.67,-62.99 4.03,-190.62 8.23,-258.64 7.17,-116.23 11.34,-233.14 22.23,-349.09 8.33,-88.82 46.89,-95.25 9.4,-179.15 -27.27,-61.04 10.12,-149.48 -28.02,-201.01 -36.59,-49.44 -166.89,-31.32 -220.38,-37.97 -101.43,-12.62 -213.68,-30.2 -314.31,-1.94 -96.3,27.05 -6.6,89.76 26.01,122.37 57.1,57.08 129.05,-8.66 147.49,95.39 35.48,200.16 -37.74,437.72 -76.61,634.16 -38.33,193.69 -129.08,334.13 -224.44,504.64 -45.23,80.86 -130.17,132.3 -194.98,196.11 -35.3,34.77 -69.38,70.74 -103.57,106.6 -40.39,42.37 -92.16,20.98 -143.22,33.04 -176.59,41.69 -176.38,279.55 -265.55,409.04 -104.78,152.15 -17.49,382.28 -66.89,556.59 -14.73,51.94 -71.33,181.8 41.69,162.37 85.65,-14.71 168.96,-88.54 233.99,-141.88 166.62,-136.64 283.18,-53.58 430.23,61.66 223.94,175.45 172.21,-224.76 196.57,-318.99 18.64,-72.11 131.05,-102.88 189.32,-131.48 104.64,-51.36 218.12,-79.81 328.57,-115.4 193.72,-62.42 377.64,-133.48 580.25,-164.99 207.17,-32.23 403.74,-35.62 599.09,-122.33 365.83,-162.38 582.39,-466.19 860.72,-735.93 136.6,-132.38 248.69,-284.18 379.91,-421.06 149.05,-155.5 343.63,-266.43 489.13,-424.43 63.75,-69.22 116.48,-147.67 179.81,-217.42 57.69,-63.53 142.27,-123.21 179.92,-201.4 43.4,-90.12 33.8,-118.66 -64.66,-123.81 -126.88,-6.64 -254.62,-20.3 -381.27,-2.65 -160.27,22.34 -369.54,108.16 -485.04,225.25 -61.33,62.17 -105.08,115.63 -183.14,159.48 -88.13,49.5 -114.4,135.07 -182.72,201.46 -11.78,11.45 -40.28,60.21 -56.13,62.82 -17.3,2.83 -20.22,-22.17 -7.5,-29.07 66.6,-36.14 53.86,-107.72 65.9,-170.58 25.55,-133.29 174.05,-481.95 -27.34,-519.49 -50.37,-9.38 -248.33,-33.63 -244.61,57.77 4.6,112.95 138.92,60.44 172.38,112.1 33.2,51.23 -38.54,196.53 -67.91,238.81 -59.23,85.27 -129.89,161.04 -220.24,213.78 13.24,-31.8 98.48,-57.49 0,0"
         style="fill:#231f20;fill-opacity:1;fill-rule:evenodd;stroke:none"
         id="path22" /><path
         d="m 9432.12,4814.87 c -65.78,41.01 -181.19,127.75 -51.56,194.13 38.91,19.92 82.31,10.4 115.41,44.52 37.63,38.8 38.5,100.72 43.09,150.81 17.75,194.13 21.55,570.53 -212.17,650.37 -54.87,-188.35 -153.38,-359.93 -215.49,-545.62 -45.45,-135.91 -61.83,-370.22 -242.99,-386.27 -57.55,-5.1 -175.08,-2.65 -211.4,51.84 -39.78,59.67 32,130.21 81.62,153.34 78.94,36.79 113.07,46.44 145.21,133.74 38.92,105.72 74.71,213.12 96.28,323.9 18.63,95.62 26.08,193.51 17.14,290.68 -6.76,73.78 -86.65,93.16 -139.4,130.96 -127.51,91.36 -216.79,222.24 -249.35,376.2 -38.89,183.98 -23.26,390.59 0.6,575.6 26.79,207.64 148.29,435.41 103.21,644.04 -19.75,91.39 -3.47,183.71 31.49,269.22 41.81,102.26 62.57,130.48 132.16,37.52 51.59,-68.91 97.05,-153.12 157.01,-214.65 34.37,-35.29 192.25,-43.07 240.32,-45.49 87.54,-4.42 170.81,22.04 238.93,77.49 36.98,30.1 155.34,52.5 199.43,24.41 90.09,-57.38 -153.27,-352.48 -139.22,-424.05 16.57,-84.32 18.08,-172.63 -14.95,-253.39 -26.7,-65.29 -82.36,-149.95 34.58,-170.15 81.51,-14.09 195.37,42.73 283.71,41.95 115.44,-1.02 227.12,-26.23 341.12,-40 186.7,-22.55 404.7,57.57 578.3,-25.98 76.8,-37.01 124.4,-105.74 213.2,-54.05 94.9,55.27 203.5,71.63 311.9,64.27 375.2,-25.49 746.5,-167.94 1114.3,-241.35 162,-32.33 343.6,-75.84 503,-9.29 25.4,10.6 167.2,131.82 169.8,59.69 3,-82.2 -24.8,-166.42 -67,-235.95 -163.4,-269.43 -479.2,-423.13 -785.6,-445.36 -185.8,-13.48 -325.6,25.45 -498.2,87.28 -173.4,62.13 -351.5,74.35 -502.1,189.65 -138.6,106.09 -89.2,-159.87 -70.6,-241.46 32.1,-141.09 115.8,-246.43 226.4,-335.75 43.6,-35.23 102.1,-40.36 140.4,-83.4 52.6,-59.14 40.8,-144.25 55.9,-216.42 26.3,-126.37 163.9,-350.53 30.4,-456.02 -57.9,-45.79 -364,-96.03 -289.4,57.38 27,55.63 113.1,50.02 113.5,124.66 0.3,64.69 -43.5,145.61 -70.2,202.6 -76.5,163.4 -177.8,157.5 -332.3,208.32 -161.5,53.1 -260.8,168.57 -390,268.87 -22.5,-67.68 2.1,-114.25 62.6,-148.8 97.2,-55.55 7.5,-183.72 -21.3,-257.55 -59,-151.24 -88.8,-408.41 -281.4,-426.11 -61.7,-5.67 -131,-3.2 -189.1,20.19 -103.9,41.77 -55.3,130.96 25.8,164.71 68.6,28.56 124.8,18.35 164.8,93.95 44.2,83.47 54.8,188.78 74.9,279.98 17.2,78.07 -98.7,78.68 -149,107.63 -76.3,43.9 -112.6,152.21 -186.2,185.28 -51.7,23.26 -159.3,-4.68 -219.18,-0.63 -92.19,6.25 -117.61,-110.98 -136.95,-178.94 -55.01,-193.43 -38.91,-380.77 -54.73,-576.19 -5.48,-67.65 -28.83,-131.98 -81.24,-177.39 -29.15,-25.27 -69.23,-35.71 -93.92,-65.94 -37.57,-46.02 -94.48,-28.98 -151.56,-28.98 -13.57,8.45 42.75,0 0,0"
         style="fill:#231f20;fill-opacity:1;fill-rule:evenodd;stroke:none"
         id="path24" /></g></g></svg>
