<?xml version="1.0" standalone="no"?>
<!DOCTYPE svg PUBLIC "-//W3C//DTD SVG 20010904//EN"
 "http://www.w3.org/TR/2001/REC-SVG-20010904/DTD/svg10.dtd">
<svg version="1.0" xmlns="http://www.w3.org/2000/svg"
 width="440.000000pt" height="440.000000pt" viewBox="0 0 440.000000 440.000000"
 preserveAspectRatio="xMidYMid meet">

<g transform="translate(0.000000,440.000000) scale(0.100000,-0.100000)"
fill="#000000" stroke="none">
<path d="M3259 4367 c-69 -26 -139 -77 -246 -177 -34 -33 -76 -66 -92 -75 -42
-21 -107 -28 -161 -17 -288 62 -281 60 -393 145 -101 77 -144 94 -197 78 -75
-22 -173 -189 -185 -316 -4 -38 -13 -86 -20 -105 -7 -19 -16 -71 -19 -115 -9
-128 -19 -151 -98 -229 -53 -52 -79 -87 -105 -143 -24 -53 -58 -101 -121 -169
-47 -53 -95 -100 -106 -104 -11 -4 -37 -3 -57 1 -52 12 -115 -9 -209 -71 -43
-28 -101 -57 -129 -65 -61 -16 -98 -44 -142 -110 -19 -27 -60 -78 -91 -112
-32 -34 -58 -69 -58 -78 0 -8 -29 -42 -64 -76 -86 -80 -176 -210 -241 -344
-114 -233 -149 -415 -110 -566 12 -44 15 -102 13 -236 l-3 -178 33 -59 c29
-50 34 -70 37 -139 4 -74 7 -85 42 -136 23 -34 47 -57 60 -59 14 -2 43 -37 91
-110 39 -59 94 -133 122 -164 70 -79 201 -163 350 -227 153 -65 241 -113 292
-159 24 -22 36 -28 31 -16 -6 16 -4 16 23 -3 16 -11 63 -38 104 -61 72 -38 80
-40 219 -52 79 -7 169 -9 200 -6 82 9 277 9 346 1 57 -8 59 -7 45 10 -14 17
-11 18 65 11 49 -4 93 -2 115 4 19 6 152 22 295 35 187 17 262 28 270 38 5 8
28 20 50 27 123 39 246 129 313 229 51 77 103 255 80 274 -8 7 -20 32 -27 57
-22 77 -61 142 -125 209 -131 137 -302 215 -539 246 -28 4 -57 15 -68 26 -18
18 -25 19 -71 9 -56 -12 -220 -15 -259 -5 -24 6 -27 14 -44 104 -22 120 -14
154 52 218 38 36 44 47 39 69 -6 22 -4 25 9 20 14 -5 16 2 13 54 -2 45 1 62
13 72 9 7 24 42 34 78 27 102 58 154 102 171 15 6 24 20 28 46 12 70 26 107
103 268 48 101 93 181 123 218 37 44 54 77 74 142 22 73 32 90 76 132 27 26
59 62 70 80 32 51 126 333 149 444 26 129 25 155 -4 206 -66 115 -65 189 4
400 50 152 52 161 47 242 -4 64 -9 88 -24 103 -25 25 -79 31 -124 15z"/>
</g>
</svg>
